# xmcd
#
# Track frame offsets:
# 150
# 12084
# 25069
# 37757
# 50888
# 65141
# 78943
# 92054
# 107699
# 124092
# 137499
# 152950
# 166511
# 180034
# 193195
#
# Disc length: 2793 seconds
#
#
# Revision: 2
# Processed by: cddbd v1.5.2PL0 Copyright (c) Steve Scherf et al.
# Submitted via: FreeRIP 2.951 
#
DISCID=b40ae70f
DTITLE=Marianne Weber - Country and Weber
DYEAR=2001
DGENRE=Country
TTITLE0=Al deze rozen mag je houden
TTITLE1=Geef me nog 'n laatste kus
TTITLE2=Sneewwitte vredesduif
TTITLE3=Al mijn tranen
TTITLE4=Ik doe wat ik wil
TTITLE5=Ik zal nooit een traan om je laten
TTITLE6=Waarom loog je tegen mij
TTITLE7=Toch hou ik zoveel van jou
TTITLE8=Laat me vrij
TTITLE9=Liefste voor jou wil ik leven
TTITLE10=Mijn groot geluk
TTITLE11=Adios amigo
TTITLE12=Laat mij niet langer wachten
TTITLE13='k Zit hier heel alleen
TTITLE14='k Wacht niet tot morgen
EXTD=
EXTT0=
EXTT1=
EXTT2=
EXTT3=
EXTT4=
EXTT5=
EXTT6=
EXTT7=
EXTT8=
EXTT9=
EXTT10=
EXTT11=
EXTT12=
EXTT13=
EXTT14=
PLAYORDER=
